<svg width="322" height="61" viewBox="0 0 322 61" fill="none" xmlns="http://www.w3.org/2000/svg">
<path d="M15.084 36.504C13.26 36.504 11.544 36.168 9.936 35.496C8.328 34.824 6.912 33.9 5.688 32.724C4.464 31.524 3.504 30.144 2.808 28.584C2.136 27 1.8 25.296 1.8 23.472C1.8 21.624 2.148 19.896 2.844 18.288C3.54 16.656 4.5 15.228 5.724 14.004C6.972 12.756 8.412 11.784 10.044 11.088C11.676 10.392 13.416 10.044 15.264 10.044C17.088 10.044 18.804 10.38 20.412 11.052C22.02 11.7 23.436 12.624 24.66 13.824C25.884 15 26.844 16.38 27.54 17.964C28.236 19.524 28.584 21.216 28.584 23.04C28.584 24.888 28.224 26.628 27.504 28.26C26.808 29.868 25.836 31.296 24.588 32.544C23.364 33.768 21.936 34.74 20.304 35.46C18.672 36.156 16.932 36.504 15.084 36.504ZM16.164 34.524C17.94 34.524 19.512 34.08 20.88 33.192C22.248 32.28 23.316 31.068 24.084 29.556C24.876 28.044 25.272 26.364 25.272 24.516C25.272 22.932 24.984 21.396 24.408 19.908C23.856 18.396 23.076 17.052 22.068 15.876C21.06 14.676 19.884 13.728 18.54 13.032C17.196 12.336 15.756 11.988 14.22 11.988C12.468 11.988 10.896 12.432 9.504 13.32C8.136 14.208 7.056 15.408 6.264 16.92C5.472 18.432 5.076 20.112 5.076 21.96C5.076 23.544 5.352 25.08 5.904 26.568C6.48 28.056 7.272 29.4 8.28 30.6C9.288 31.8 10.464 32.76 11.808 33.48C13.152 34.176 14.604 34.524 16.164 34.524ZM38.835 36.504L32.931 21.204C32.547 20.988 32.139 20.844 31.707 20.772C31.299 20.7 30.975 20.664 30.735 20.664V19.584H38.511V20.664C38.247 20.664 37.863 20.7 37.359 20.772C36.879 20.844 36.423 21 35.991 21.24L40.023 31.86L44.343 21.24C43.911 21 43.443 20.844 42.939 20.772C42.435 20.7 42.051 20.664 41.787 20.664V19.584H48.447V20.664C48.207 20.664 47.883 20.7 47.475 20.772C47.067 20.844 46.659 20.988 46.251 21.204L40.059 36.504H38.835ZM53.179 36.288C51.931 36.288 50.899 35.892 50.083 35.1C49.267 34.308 48.859 33.276 48.859 32.004C48.859 31.548 48.895 31.104 48.967 30.672C49.063 30.24 49.195 29.868 49.363 29.556C49.579 29.436 50.011 29.256 50.659 29.016C51.331 28.752 52.099 28.464 52.963 28.152C53.827 27.84 54.655 27.54 55.447 27.252C56.263 26.964 56.923 26.736 57.427 26.568V23.796C57.427 23.316 57.403 22.932 57.355 22.644C57.331 22.356 57.235 22.08 57.067 21.816C56.923 21.576 56.695 21.36 56.383 21.168C56.071 20.976 55.675 20.88 55.195 20.88C54.331 20.88 53.635 21.192 53.107 21.816C52.603 22.416 52.423 23.172 52.567 24.084L49.687 25.236C49.663 23.964 49.939 22.884 50.515 21.996C51.091 21.108 51.871 20.436 52.855 19.98C53.863 19.524 54.943 19.296 56.095 19.296C57.343 19.296 58.351 19.596 59.119 20.196C59.887 20.772 60.271 21.684 60.271 22.932V32.148C60.271 32.82 60.283 33.3 60.307 33.588C60.355 33.852 60.499 34.08 60.739 34.272C60.979 34.44 61.267 34.5 61.603 34.452C61.939 34.404 62.215 34.344 62.431 34.272L62.863 35.208C62.431 35.52 61.963 35.784 61.459 36C60.979 36.192 60.439 36.288 59.839 36.288C59.191 36.288 58.675 36.108 58.291 35.748C57.907 35.364 57.667 34.908 57.571 34.38C56.803 34.836 56.083 35.268 55.411 35.676C54.739 36.084 53.995 36.288 53.179 36.288ZM54.259 34.056C54.643 34.056 55.099 33.984 55.627 33.84C56.155 33.696 56.755 33.456 57.427 33.12V28.152C56.707 28.392 55.939 28.668 55.123 28.98C54.331 29.292 53.623 29.58 52.999 29.844C52.399 30.084 52.003 30.264 51.811 30.384C51.571 31.44 51.679 32.316 52.135 33.012C52.615 33.708 53.323 34.056 54.259 34.056ZM64.2524 36V34.92C64.5644 34.92 64.9964 34.884 65.5484 34.812C66.1004 34.74 66.6164 34.584 67.0964 34.344V22.14C66.7844 22.02 66.4124 21.96 65.9804 21.96C65.5724 21.936 65.2004 21.948 64.8644 21.996L64.5404 21.06L69.2924 19.08L70.0124 19.584V21.996C70.5404 21.588 71.1284 21.18 71.7764 20.772C72.4484 20.364 73.1324 20.016 73.8284 19.728C74.5484 19.44 75.2444 19.296 75.9164 19.296C76.3484 19.296 76.8404 19.368 77.3924 19.512C77.9684 19.656 78.5324 19.98 79.0844 20.484C79.5164 20.868 79.8644 21.396 80.1284 22.068C80.4164 22.74 80.5604 23.616 80.5604 24.696V34.344C81.0404 34.584 81.5564 34.74 82.1084 34.812C82.6604 34.884 83.0924 34.92 83.4044 34.92V36H75.0884V34.92C75.3524 34.92 75.7364 34.884 76.2404 34.812C76.7444 34.74 77.2124 34.584 77.6444 34.344V25.596C77.6444 24.996 77.6204 24.48 77.5724 24.048C77.5244 23.616 77.3804 23.208 77.1404 22.824C76.8764 22.392 76.5164 22.068 76.0604 21.852C75.6284 21.636 75.1364 21.528 74.5844 21.528C73.6484 21.528 72.7844 21.756 71.9924 22.212C71.2244 22.668 70.5644 23.112 70.0124 23.544V34.344C70.4924 34.584 71.0084 34.74 71.5604 34.812C72.1124 34.884 72.5444 34.92 72.8564 34.92V36H64.2524ZM89.6712 36.288C88.4232 36.288 87.3912 35.892 86.5752 35.1C85.7592 34.308 85.3512 33.276 85.3512 32.004C85.3512 31.548 85.3872 31.104 85.4592 30.672C85.5552 30.24 85.6872 29.868 85.8552 29.556C86.0712 29.436 86.5032 29.256 87.1512 29.016C87.8232 28.752 88.5912 28.464 89.4552 28.152C90.3192 27.84 91.1472 27.54 91.9392 27.252C92.7552 26.964 93.4152 26.736 93.9192 26.568V23.796C93.9192 23.316 93.8952 22.932 93.8472 22.644C93.8232 22.356 93.7272 22.08 93.5592 21.816C93.4152 21.576 93.1872 21.36 92.8752 21.168C92.5632 20.976 92.1672 20.88 91.6872 20.88C90.8232 20.88 90.1272 21.192 89.5992 21.816C89.0952 22.416 88.9152 23.172 89.0592 24.084L86.1792 25.236C86.1552 23.964 86.4312 22.884 87.0072 21.996C87.5832 21.108 88.3632 20.436 89.3472 19.98C90.3552 19.524 91.4352 19.296 92.5872 19.296C93.8352 19.296 94.8432 19.596 95.6112 20.196C96.3792 20.772 96.7632 21.684 96.7632 22.932V32.148C96.7632 32.82 96.7752 33.3 96.7992 33.588C96.8472 33.852 96.9912 34.08 97.2312 34.272C97.4712 34.44 97.7592 34.5 98.0952 34.452C98.4312 34.404 98.7072 34.344 98.9232 34.272L99.3552 35.208C98.9232 35.52 98.4552 35.784 97.9512 36C97.4712 36.192 96.9312 36.288 96.3312 36.288C95.6832 36.288 95.1672 36.108 94.7832 35.748C94.3992 35.364 94.1592 34.908 94.0632 34.38C93.2952 34.836 92.5752 35.268 91.9032 35.676C91.2312 36.084 90.4872 36.288 89.6712 36.288ZM90.7512 34.056C91.1352 34.056 91.5912 33.984 92.1192 33.84C92.6472 33.696 93.2472 33.456 93.9192 33.12V28.152C93.1992 28.392 92.4312 28.668 91.6152 28.98C90.8232 29.292 90.1152 29.58 89.4912 29.844C88.8912 30.084 88.4952 30.264 88.3032 30.384C88.0632 31.44 88.1712 32.316 88.6272 33.012C89.1072 33.708 89.8152 34.056 90.7512 34.056ZM91.7592 16.272C90.8712 16.272 90.0912 15.96 89.4192 15.336C88.7472 14.712 88.4112 13.908 88.4112 12.924C88.4112 11.988 88.7352 11.184 89.3832 10.512C90.0312 9.816 90.8112 9.468 91.7232 9.468C92.6592 9.468 93.4512 9.804 94.0992 10.476C94.7472 11.148 95.0712 11.94 95.0712 12.852C95.0712 13.764 94.7472 14.568 94.0992 15.264C93.4512 15.936 92.6712 16.272 91.7592 16.272ZM91.9392 15.084C92.3952 15.036 92.7672 14.868 93.0552 14.58C93.3432 14.268 93.4872 13.788 93.4872 13.14C93.4872 12.564 93.2952 12.012 92.9112 11.484C92.5512 10.932 92.0952 10.656 91.5432 10.656C91.1352 10.656 90.7752 10.836 90.4632 11.196C90.1512 11.556 89.9952 12.012 89.9952 12.564C89.9952 13.164 90.1752 13.752 90.5352 14.328C90.8952 14.88 91.3632 15.132 91.9392 15.084ZM100.676 36V34.92C100.988 34.92 101.42 34.884 101.972 34.812C102.524 34.74 103.04 34.584 103.52 34.344V10.656C103.208 10.536 102.836 10.476 102.404 10.476C101.996 10.452 101.624 10.464 101.288 10.512L100.964 9.576L105.716 7.596L106.436 8.1V34.344C106.94 34.584 107.48 34.74 108.056 34.812C108.632 34.884 109.076 34.92 109.388 34.92V36H100.676ZM118.712 37.116C117.512 37.068 116.54 36.948 115.796 36.756C115.076 36.588 114.464 36.336 113.96 36C113.48 35.688 113.012 35.316 112.556 34.884C112.244 34.548 111.812 34.02 111.26 33.3C110.732 32.556 110.168 31.764 109.568 30.924C108.968 30.084 108.428 29.316 107.948 28.62C107.468 27.9 107.132 27.408 106.94 27.144L112.916 21.24C112.436 21 111.92 20.844 111.368 20.772C110.816 20.7 110.384 20.664 110.072 20.664V19.584H117.812V20.664C117.548 20.664 117.164 20.7 116.66 20.772C116.18 20.844 115.724 20.988 115.292 21.204L109.856 26.604C110.24 27.132 110.732 27.804 111.332 28.62C111.932 29.412 112.556 30.216 113.204 31.032C113.852 31.824 114.428 32.508 114.932 33.084C115.556 33.78 116.132 34.368 116.66 34.848C117.188 35.328 117.932 35.736 118.892 36.072L118.712 37.116ZM119.384 28.26C119.384 26.508 119.732 24.96 120.428 23.616C121.124 22.248 122.048 21.18 123.2 20.412C124.376 19.644 125.672 19.272 127.088 19.296C128.288 19.296 129.344 19.596 130.256 20.196C131.168 20.796 131.852 21.612 132.308 22.644C132.788 23.652 132.956 24.768 132.812 25.992L122.012 26.568V26.676C122.012 27.924 122.264 29.088 122.768 30.168C123.272 31.224 123.968 32.076 124.856 32.724C125.744 33.348 126.752 33.66 127.88 33.66C128.696 33.66 129.44 33.504 130.112 33.192C130.784 32.856 131.348 32.484 131.804 32.076L132.56 32.724C132.2 33.252 131.696 33.792 131.048 34.344C130.424 34.896 129.704 35.364 128.888 35.748C128.072 36.108 127.196 36.288 126.26 36.288C124.916 36.288 123.728 35.916 122.696 35.172C121.664 34.428 120.848 33.444 120.248 32.22C119.672 30.996 119.384 29.676 119.384 28.26ZM126.224 21.168C125.192 21.168 124.316 21.552 123.596 22.32C122.9 23.088 122.432 24.024 122.192 25.128L129.608 24.552C129.608 23.64 129.272 22.848 128.6 22.176C127.928 21.504 127.136 21.168 126.224 21.168ZM134.213 36V34.92C134.477 34.92 134.861 34.884 135.365 34.812C135.869 34.74 136.337 34.584 136.769 34.344V22.14C136.457 22.02 136.085 21.96 135.653 21.96C135.245 21.936 134.873 21.948 134.537 21.996L134.213 21.06L138.965 19.08L139.685 19.584V23.04C140.261 22.152 140.897 21.336 141.593 20.592C142.289 19.848 143.069 19.428 143.933 19.332C145.013 19.212 145.901 19.368 146.597 19.8L145.013 23.076C144.821 22.884 144.557 22.704 144.221 22.536C143.885 22.368 143.501 22.284 143.069 22.284C142.205 22.284 141.521 22.584 141.017 23.184C140.513 23.76 140.069 24.396 139.685 25.092V34.344C140.237 34.584 140.813 34.74 141.413 34.812C142.013 34.884 142.481 34.92 142.817 34.92V36H134.213ZM168.333 36.504C167.589 36.504 166.773 36.42 165.885 36.252C164.997 36.084 164.109 35.808 163.221 35.424C162.333 35.016 161.517 34.464 160.773 33.768C160.029 33.072 159.429 32.208 158.973 31.176C158.541 30.12 158.277 28.824 158.181 27.288C158.109 25.728 158.073 24.024 158.073 22.176V12.204C157.545 11.964 156.969 11.808 156.345 11.736C155.721 11.664 155.241 11.628 154.905 11.628V10.548H164.373V11.628C164.037 11.628 163.557 11.664 162.933 11.736C162.333 11.808 161.757 11.964 161.205 12.204V21.996C161.205 22.452 161.205 23.04 161.205 23.76C161.205 24.456 161.217 25.2 161.241 25.992C161.265 26.76 161.313 27.504 161.385 28.224C161.481 28.944 161.601 29.544 161.745 30.024C162.033 30.84 162.489 31.608 163.113 32.328C163.761 33.024 164.553 33.588 165.489 34.02C166.449 34.428 167.517 34.632 168.693 34.632C170.397 34.632 171.933 34.272 173.301 33.552C174.669 32.832 175.581 31.704 176.037 30.168C176.325 29.16 176.469 27.912 176.469 26.424C176.493 24.912 176.505 23.304 176.505 21.6V12.204C175.977 11.964 175.401 11.808 174.777 11.736C174.153 11.664 173.673 11.628 173.337 11.628V10.548H181.689V11.628C181.353 11.628 180.873 11.664 180.249 11.736C179.649 11.808 179.073 11.964 178.521 12.204V21.852C178.521 22.884 178.509 23.976 178.485 25.128C178.485 26.256 178.437 27.336 178.341 28.368C178.269 29.4 178.113 30.276 177.873 30.996C177.513 32.1 176.949 33.012 176.181 33.732C175.437 34.452 174.597 35.016 173.661 35.424C172.725 35.832 171.789 36.108 170.853 36.252C169.917 36.42 169.077 36.504 168.333 36.504ZM183.362 36V34.92C183.674 34.92 184.106 34.884 184.658 34.812C185.21 34.74 185.726 34.584 186.206 34.344V22.14C185.894 22.02 185.522 21.96 185.09 21.96C184.682 21.936 184.31 21.948 183.974 21.996L183.65 21.06L188.402 19.08L189.122 19.584V21.996C189.65 21.588 190.238 21.18 190.886 20.772C191.558 20.364 192.242 20.016 192.938 19.728C193.658 19.44 194.354 19.296 195.026 19.296C195.458 19.296 195.95 19.368 196.502 19.512C197.078 19.656 197.642 19.98 198.194 20.484C198.626 20.868 198.974 21.396 199.238 22.068C199.526 22.74 199.67 23.616 199.67 24.696V34.344C200.15 34.584 200.666 34.74 201.218 34.812C201.77 34.884 202.202 34.92 202.514 34.92V36H194.198V34.92C194.462 34.92 194.846 34.884 195.35 34.812C195.854 34.74 196.322 34.584 196.754 34.344V25.596C196.754 24.996 196.73 24.48 196.682 24.048C196.634 23.616 196.49 23.208 196.25 22.824C195.986 22.392 195.626 22.068 195.17 21.852C194.738 21.636 194.246 21.528 193.694 21.528C192.758 21.528 191.894 21.756 191.102 22.212C190.334 22.668 189.674 23.112 189.122 23.544V34.344C189.602 34.584 190.118 34.74 190.67 34.812C191.222 34.884 191.654 34.92 191.966 34.92V36H183.362ZM203.965 36V34.92C204.277 34.92 204.709 34.884 205.261 34.812C205.813 34.74 206.329 34.584 206.809 34.344V22.14C206.497 22.02 206.125 21.96 205.693 21.96C205.285 21.936 204.913 21.948 204.577 21.996L204.253 21.06L209.005 19.08L209.725 19.584V34.344C210.205 34.584 210.721 34.74 211.273 34.812C211.825 34.884 212.257 34.92 212.569 34.92V36H203.965ZM208.213 15.66C207.637 15.66 207.157 15.48 206.773 15.12C206.413 14.736 206.233 14.256 206.233 13.68C206.233 13.152 206.413 12.684 206.773 12.276C207.157 11.868 207.637 11.664 208.213 11.664C208.789 11.664 209.269 11.856 209.653 12.24C210.037 12.624 210.229 13.092 210.229 13.644C210.229 14.172 210.037 14.64 209.653 15.048C209.269 15.456 208.789 15.66 208.213 15.66ZM221.12 36.504L215.216 21.204C214.832 20.988 214.424 20.844 213.992 20.772C213.584 20.7 213.26 20.664 213.02 20.664V19.584H220.796V20.664C220.532 20.664 220.148 20.7 219.644 20.772C219.164 20.844 218.708 21 218.276 21.24L222.308 31.86L226.628 21.24C226.196 21 225.728 20.844 225.224 20.772C224.72 20.7 224.336 20.664 224.072 20.664V19.584H230.732V20.664C230.492 20.664 230.168 20.7 229.76 20.772C229.352 20.844 228.944 20.988 228.536 21.204L222.344 36.504H221.12ZM230.865 28.26C230.865 26.508 231.213 24.96 231.909 23.616C232.605 22.248 233.529 21.18 234.681 20.412C235.857 19.644 237.153 19.272 238.569 19.296C239.769 19.296 240.825 19.596 241.737 20.196C242.649 20.796 243.333 21.612 243.789 22.644C244.269 23.652 244.437 24.768 244.293 25.992L233.493 26.568V26.676C233.493 27.924 233.745 29.088 234.249 30.168C234.753 31.224 235.449 32.076 236.337 32.724C237.225 33.348 238.233 33.66 239.361 33.66C240.177 33.66 240.921 33.504 241.593 33.192C242.265 32.856 242.829 32.484 243.285 32.076L244.041 32.724C243.681 33.252 243.177 33.792 242.529 34.344C241.905 34.896 241.185 35.364 240.369 35.748C239.553 36.108 238.677 36.288 237.741 36.288C236.397 36.288 235.209 35.916 234.177 35.172C233.145 34.428 232.329 33.444 231.729 32.22C231.153 30.996 230.865 29.676 230.865 28.26ZM237.705 21.168C236.673 21.168 235.797 21.552 235.077 22.32C234.381 23.088 233.913 24.024 233.673 25.128L241.089 24.552C241.089 23.64 240.753 22.848 240.081 22.176C239.409 21.504 238.617 21.168 237.705 21.168ZM245.694 36V34.92C245.958 34.92 246.342 34.884 246.846 34.812C247.35 34.74 247.818 34.584 248.25 34.344V22.14C247.938 22.02 247.566 21.96 247.134 21.96C246.726 21.936 246.354 21.948 246.018 21.996L245.694 21.06L250.446 19.08L251.166 19.584V23.04C251.742 22.152 252.378 21.336 253.074 20.592C253.77 19.848 254.55 19.428 255.414 19.332C256.494 19.212 257.382 19.368 258.078 19.8L256.494 23.076C256.302 22.884 256.038 22.704 255.702 22.536C255.366 22.368 254.982 22.284 254.55 22.284C253.686 22.284 253.002 22.584 252.498 23.184C251.994 23.76 251.55 24.396 251.166 25.092V34.344C251.718 34.584 252.294 34.74 252.894 34.812C253.494 34.884 253.962 34.92 254.298 34.92V36H245.694ZM264.917 36.288C264.101 36.288 263.237 36.192 262.325 36C261.413 35.832 260.729 35.616 260.273 35.352L259.517 30.672L260.705 30.456C260.921 31.632 261.353 32.64 262.001 33.48C262.673 34.296 263.561 34.704 264.665 34.704C265.505 34.704 266.213 34.5 266.789 34.092C267.365 33.684 267.653 33.084 267.653 32.292C267.653 31.716 267.413 31.2 266.933 30.744C266.453 30.264 265.865 29.808 265.169 29.376C264.473 28.92 263.765 28.44 263.045 27.936C262.349 27.432 261.761 26.868 261.281 26.244C260.801 25.596 260.561 24.828 260.561 23.94C260.561 22.476 261.089 21.336 262.145 20.52C263.225 19.704 264.557 19.296 266.141 19.296C266.933 19.296 267.641 19.368 268.265 19.512C268.889 19.632 269.309 19.716 269.525 19.764L270.065 23.868L268.985 24.048C268.865 23.064 268.529 22.296 267.977 21.744C267.449 21.192 266.777 20.916 265.961 20.916C265.169 20.916 264.509 21.12 263.981 21.528C263.453 21.912 263.189 22.488 263.189 23.256C263.189 23.952 263.429 24.54 263.909 25.02C264.413 25.5 265.025 25.944 265.745 26.352C266.465 26.76 267.173 27.192 267.869 27.648C268.589 28.104 269.189 28.668 269.669 29.34C270.173 30.012 270.425 30.852 270.425 31.86C270.425 33.18 269.909 34.248 268.877 35.064C267.869 35.88 266.549 36.288 264.917 36.288ZM272.66 36V34.92C272.972 34.92 273.404 34.884 273.956 34.812C274.508 34.74 275.024 34.584 275.504 34.344V22.14C275.192 22.02 274.82 21.96 274.388 21.96C273.98 21.936 273.608 21.948 273.272 21.996L272.948 21.06L277.7 19.08L278.42 19.584V34.344C278.9 34.584 279.416 34.74 279.968 34.812C280.52 34.884 280.952 34.92 281.264 34.92V36H272.66ZM276.908 15.66C276.332 15.66 275.852 15.48 275.468 15.12C275.108 14.736 274.928 14.256 274.928 13.68C274.928 13.152 275.108 12.684 275.468 12.276C275.852 11.868 276.332 11.664 276.908 11.664C277.484 11.664 277.964 11.856 278.348 12.24C278.732 12.624 278.924 13.092 278.924 13.644C278.924 14.172 278.732 14.64 278.348 15.048C277.964 15.456 277.484 15.66 276.908 15.66ZM288.525 36.288C287.997 36.288 287.481 36.168 286.977 35.928C286.473 35.688 286.089 35.364 285.825 34.956C285.609 34.62 285.453 34.2 285.357 33.696C285.285 33.192 285.249 32.496 285.249 31.608V21.6H283.341V20.484C283.821 20.196 284.313 19.824 284.817 19.368C285.321 18.912 285.801 18.42 286.257 17.892C286.713 17.364 287.109 16.896 287.445 16.488L288.165 16.812V19.584H293.169V21.6H288.165V31.428C288.165 32.172 288.201 32.736 288.273 33.12C288.369 33.48 288.585 33.768 288.921 33.984C289.233 34.176 289.641 34.26 290.145 34.236C290.673 34.212 291.177 34.14 291.657 34.02C292.161 33.876 292.521 33.744 292.737 33.624L293.241 34.524C292.641 35.004 291.957 35.424 291.189 35.784C290.445 36.12 289.557 36.288 288.525 36.288ZM294.603 28.26C294.603 26.508 294.951 24.96 295.647 23.616C296.343 22.248 297.267 21.18 298.419 20.412C299.595 19.644 300.891 19.272 302.307 19.296C303.507 19.296 304.563 19.596 305.475 20.196C306.387 20.796 307.071 21.612 307.527 22.644C308.007 23.652 308.175 24.768 308.031 25.992L297.231 26.568V26.676C297.231 27.924 297.483 29.088 297.987 30.168C298.491 31.224 299.187 32.076 300.075 32.724C300.963 33.348 301.971 33.66 303.099 33.66C303.915 33.66 304.659 33.504 305.331 33.192C306.003 32.856 306.567 32.484 307.023 32.076L307.779 32.724C307.419 33.252 306.915 33.792 306.267 34.344C305.643 34.896 304.923 35.364 304.107 35.748C303.291 36.108 302.415 36.288 301.479 36.288C300.135 36.288 298.947 35.916 297.915 35.172C296.883 34.428 296.067 33.444 295.467 32.22C294.891 30.996 294.603 29.676 294.603 28.26ZM301.443 21.168C300.411 21.168 299.535 21.552 298.815 22.32C298.119 23.088 297.651 24.024 297.411 25.128L304.827 24.552C304.827 23.64 304.491 22.848 303.819 22.176C303.147 21.504 302.355 21.168 301.443 21.168ZM315.103 36.288C314.575 36.288 314.059 36.168 313.555 35.928C313.051 35.688 312.667 35.364 312.403 34.956C312.187 34.62 312.031 34.2 311.935 33.696C311.863 33.192 311.827 32.496 311.827 31.608V21.6H309.919V20.484C310.399 20.196 310.891 19.824 311.395 19.368C311.899 18.912 312.379 18.42 312.835 17.892C313.291 17.364 313.687 16.896 314.023 16.488L314.743 16.812V19.584H319.747V21.6H314.743V31.428C314.743 32.172 314.779 32.736 314.851 33.12C314.947 33.48 315.163 33.768 315.499 33.984C315.811 34.176 316.219 34.26 316.723 34.236C317.251 34.212 317.755 34.14 318.235 34.02C318.739 33.876 319.099 33.744 319.315 33.624L319.819 34.524C319.219 35.004 318.535 35.424 317.767 35.784C317.023 36.12 316.135 36.288 315.103 36.288Z" fill="white"/>
<path d="M4.43952 48.5L152.917 59L312.739 48.5" stroke="#4BB3FD" stroke-width="4"/>
</svg>
